#N canvas 34 34 1920 1022 12;
#X obj 81 656 dac~;
#X floatatom 441 67 5 0 0 0 - - - 0;
#X obj 441 114 osc~;
#X obj 18 902 *~;
#X obj 75 902 *~;
#X obj 37 868 -~;
#X msg 37 839 1;
#X obj 95 770 hsl 162 19 0 1 0 0 empty empty empty -2 -10 0 12 #faff00 #000000 #000000 0 1;
#X msg 16 92 \; pd dsp \$1;
#X obj 16 20 tgl 30 0 empty empty empty 17 7 0 10 #9c9c9c #000000 #000000 0 1;
#X text 56 25 <-Click to start/stop DSP;
#X obj 66 259 vsl 15 128 0 100 0 0 empty empty empty 0 -9 0 10 #fcc4c4 #000000 #000000 0 1;
#X obj 66 404 / 100;
#X floatatom 66 433 5 0 0 0 - - - 0;
#X obj 66 485 line~;
#X obj 66 460 pack 0 50;
#X text 96 256 volume;
#X obj 66 199 loadbang;
#X msg 66 228 30;
#X obj 48 580 *~;
#X obj 104 581 *~;
#X obj 19 955 s~ left;
#X obj 9 539 r~ left;
#X obj 104 957 s~ right;
#X obj 103 519 r~ right;
#X obj 92 850 line~;
#X obj 92 800 pack 0 50;
#X obj 627 601 s~ sound;
#X obj 17 772 r~ sound;
#X text 274 771 <-pan;
#X obj 632 334 tgl 19 0 empty empty empty 0 -10 0 12 #fcfcfc #000000 #000000 0 1;
#X obj 581 566 *~;
#X obj 632 415 tgl 19 0 empty empty empty 0 -10 0 12 #fcfcfc #000000 #000000 0 1;
#X obj 632 380 metro 500;
#X obj 632 479 line~;
#X obj 632 454 pack 0 10;
#X floatatom 706 344 5 0 0 0 - - - 0;
#X obj 886 118 hsl 162 19 -1 1 0 0 empty empty empty -2 -10 0 12 #00ff04 #000000 #000000 0 1;
#X obj 706 180 /;
#X msg 706 95 1;
#X obj 706 63 metro 50;
#X obj 706 34 tgl 19 0 empty empty empty 0 -10 0 12 #fcfcfc #000000 #000000 0 1;
#X obj 706 217 abs;
#X obj 883 156 s balance;
#X obj 724 146 r balance;
#X obj 92 690 r balance;
#X obj 92 714 / 2;
#X obj 92 743 + 0.5;
#X obj 706 311 + 50;
#X obj 706 248 log;
#X obj 706 283 * 20;
#X obj 28 800 loadbang;
#X obj 632 297 loadbang;
#X obj 621 16 loadbang;
#X obj 441 7 loadbang;
#X msg 441 36 440;
#X obj 883 43 loadbang;
#X msg 883 72 0.1;
#X connect 1 0 2 0;
#X connect 2 0 31 0;
#X connect 3 0 21 0;
#X connect 4 0 23 0;
#X connect 5 0 3 1;
#X connect 6 0 5 0;
#X connect 7 0 26 0;
#X connect 9 0 8 0;
#X connect 11 0 12 0;
#X connect 12 0 13 0;
#X connect 13 0 15 0;
#X connect 14 0 19 1;
#X connect 14 0 20 1;
#X connect 15 0 14 0;
#X connect 17 0 18 0;
#X connect 18 0 11 0;
#X connect 19 0 0 0;
#X connect 20 0 0 1;
#X connect 22 0 19 0;
#X connect 24 0 20 0;
#X connect 25 0 4 1;
#X connect 25 0 5 1;
#X connect 26 0 25 0;
#X connect 28 0 3 0;
#X connect 28 0 4 0;
#X connect 30 0 33 0;
#X connect 31 0 27 0;
#X connect 32 0 35 0;
#X connect 33 0 32 0;
#X connect 34 0 31 1;
#X connect 35 0 34 0;
#X connect 36 0 33 1;
#X connect 37 0 43 0;
#X connect 38 0 42 0;
#X connect 39 0 38 0;
#X connect 40 0 39 0;
#X connect 41 0 40 0;
#X connect 42 0 49 0;
#X connect 44 0 38 1;
#X connect 45 0 46 0;
#X connect 46 0 47 0;
#X connect 47 0 7 0;
#X connect 48 0 36 0;
#X connect 49 0 50 0;
#X connect 50 0 48 0;
#X connect 51 0 6 0;
#X connect 52 0 30 0;
#X connect 53 0 41 0;
#X connect 54 0 55 0;
#X connect 55 0 1 0;
#X connect 56 0 57 0;
#X connect 57 0 37 0;
