#N canvas 34 34 1920 1026 12;
#X obj 102 655 dac~;
#X floatatom 379 239 5 0 0 0 - - - 0;
#X obj 39 901 *~;
#X obj 96 901 *~;
#X obj 58 867 -~;
#X msg 58 838 1;
#X obj 116 769 hsl 162 19 0 1 0 0 empty empty empty -2 -10 0 12 #faff00 #000000 #000000 0 1;
#X msg 16 120 \; pd dsp \$1;
#X obj 16 20 tgl 30 0 empty empty empty 17 7 0 10 #9c9c9c #000000 #000000 0 1;
#X text 56 25 <-Click to start/stop DSP;
#X obj 87 258 vsl 15 128 0 100 0 0 empty empty empty 0 -9 0 10 #fcc4c4 #000000 #000000 0 1;
#X obj 87 403 / 100;
#X floatatom 87 432 5 0 0 0 - - - 0;
#X obj 87 484 line~;
#X obj 87 459 pack 0 50;
#X text 117 255 volume;
#X obj 87 172 loadbang;
#X msg 87 214 30;
#X obj 69 579 *~;
#X obj 125 580 *~;
#X obj 40 954 s~ left;
#X obj 125 956 s~ right;
#X obj 113 849 line~;
#X obj 113 799 pack 0 50;
#X obj 379 556 s~ sound;
#X obj 38 771 r~ sound;
#X text 284 770 <-pan;
#X obj 380 521 *~;
#X obj 398 422 tgl 19 0 empty empty empty 0 -10 0 12 #fcfcfc #000000 #000000 0 1;
#X obj 398 387 metro 500;
#X obj 398 486 line~;
#X obj 398 461 pack 0 10;
#X floatatom 472 351 5 0 0 0 - - - 0;
#X obj 1582 92 hsl 162 19 -1 1 0 0 empty empty empty -2 -10 0 12 #00ff04 #000000 #000000 0 1;
#X obj 472 187 /;
#X msg 472 102 1;
#X obj 472 70 metro 50;
#X obj 472 224 abs;
#X obj 1567 503 s balance;
#X obj 113 689 r balance;
#X obj 113 713 / 2;
#X obj 113 742 + 0.5;
#X obj 472 255 log;
#X obj 49 799 loadbang;
#X obj 379 179 loadbang;
#X msg 379 208 440;
#X obj 1579 17 loadbang;
#X msg 1579 46 0.1;
#X obj 351 848 r~ left_del;
#X obj 824 809 r~ left;
#X obj 1014 809 r~ right;
#X obj 824 844 delwrite~ delayleft 1000;
#X obj 900 966 s~ right_del;
#X obj 694 966 s~ left_del;
#X obj 1014 844 delwrite~ delayright 1000;
#X obj 899 894 delread~ delayright 0;
#X obj 483 441 s clock;
#X obj 708 557 r clock;
#X floatatom 707 659 5 0 0 0 - - - 0;
#X floatatom 694 785 5 0 0 0 - - - 0;
#X obj 707 691 bng 19 250 50 0 empty empty empty 0 -10 0 12 #fcfcfc #000000 #000000;
#X floatatom 783 718 5 0 0 0 - - - 0;
#X obj 707 736 int;
#X obj 707 629 abs;
#X obj 707 596 - 1;
#X obj 693 820 pipe 5;
#X floatatom 895 660 5 0 0 0 - - - 0;
#X obj 783 678 int;
#X obj 783 602 metro 500;
#X obj 783 640 bng 19 250 50 0 empty empty empty 0 -10 0 12 #fcfcfc #000000 #000000;
#X floatatom 762 783 5 0 0 0 - - - 0;
#X obj 1779 16 loadbang;
#X msg 1779 45 0.1;
#X obj 1779 78 vsl 19 162 1 -1 0 0 empty empty empty 0 -9 0 12 #00faff #000000 #000000 0 1;
#X obj 1729 477 s fr_balance;
#X obj 576 387 s click;
#X obj 978 487 r click;
#X obj 894 455 r fr_balance;
#X obj 894 489 / 2;
#X obj 977 518 / 2;
#X obj 568 21 r balance;
#X obj 645 21 r fr_balance;
#X obj 568 50 abs;
#X obj 645 45 abs;
#X obj 611 80 t b f;
#X obj 598 149 expr $f1 + $f2;
#X obj 539 168 / 2;
#X obj 472 290 * 30;
#X obj 958 563 t b f;
#X obj 472 318 + 100;
#X obj 693 898 delread~ delayleft 0;
#X floatatom 693 859 5 0 0 0 - - - 0;
#X floatatom 440 848 5 0 0 0 - - - 0;
#X obj 485 847 r~ right_del;
#X obj 1245 831 r~ left_del_pass;
#X obj 352 963 s~ left_del_pass;
#X obj 485 962 s~ right_del_pass;
#X obj 441 641 r fr_balance;
#X obj 441 721 / 2;
#X obj 441 750 + 0.5;
#X obj 441 688 * -1;
#X obj 379 286 phasor~ 440;
#X obj 441 779 * 1000;
#X obj 440 816 + 450;
#X obj 352 915 bp~ 450 1;
#X obj 486 914 bp~ 450 1;
#X obj 16 62 s start;
#X obj 16 93 r start;
#X obj 472 42 r start;
#X obj 398 361 r start;
#X obj 783 576 r start;
#X floatatom 598 173 5 0 0 0 - - - 0;
#X floatatom 672 253 5 0 0 0 - - - 0;
#X obj 23 515 r~ left_faded;
#X obj 123 515 r~ right_faded;
#X obj 1387 962 s~ left_faded;
#X obj 1349 876 *~;
#X obj 1387 929 +~;
#X floatatom 1367 793 5 0 0 0 - - - 0;
#X obj 1367 848 line~;
#X obj 672 311 s center;
#X obj 1367 758 r center;
#X obj 1428 570 - 1;
#X obj 1428 597 abs;
#X msg 1427 728 start;
#X msg 1488 728 stop;
#X obj 1539 792 bng 19 250 50 0 empty empty empty 0 -10 0 12 #fcfcfc #000000 #000000;
#X obj 1472 792 readsf~ 1;
#X msg 1537 728 open correct.wav;
#X obj 1537 700 loadbang;
#X obj 1428 544 r center;
#X obj 672 283 change;
#X floatatom 1428 632 5 0 0 0 - - - 0;
#X obj 1428 685 select 1;
#X obj 637 200 change;
#X obj 1428 655 change;
#X obj 1628 870 *~;
#X obj 1557 928 +~;
#X floatatom 1646 787 5 0 0 0 - - - 0;
#X obj 1646 842 line~;
#X obj 1646 817 pack 0 50;
#X obj 1646 752 r center;
#X obj 1517 825 r~ right_del_pass;
#X obj 1557 961 s~ right_faded;
#X obj 1367 823 pack 0 10;
#X obj 672 229 expr if($f1 > 0.15 \, 1 \, 0);
#X obj 1386 190 netreceive -u -b 5005;
#X obj 1386 225 mrpeach/unpackOSC;
#X floatatom 1386 281 5 0 0 0 - - - 0;
#X floatatom 1461 281 5 0 0 0 - - - 0;
#X obj 1514 383 *;
#X obj 1515 84 tgl 35 1 empty empty empty 0 -10 0 12 #c6feff #000000 #000000 1 1;
#X obj 1567 431 +;
#X floatatom 1567 455 5 0 0 0 - - - 0;
#X obj 1615 347 *;
#X obj 1634 312 abs;
#X obj 1634 279 - 1;
#X obj 1600 389 t b f;
#X obj 1573 255 t b f;
#X obj 1678 353 *;
#X obj 1731 401 +;
#X floatatom 1731 425 5 0 0 0 - - - 0;
#X obj 1779 317 *;
#X obj 1764 359 t b f;
#X text 1348 93 Manual/Automatic ->;
#X floatatom 568 74 5 0 0 0 - - - 0;
#X floatatom 645 69 5 0 0 0 - - - 0;
#X obj 1376 250 mrpeach/routeOSC /x /y /on;
#X obj 1513 280 s on;
#X obj 333 1 r on;
#X msg 1515 57 1;
#X obj 894 518 + 0;
#X obj 895 610 expr $f1 * $f2 * 0.8;
#X connect 1 0 101 0;
#X connect 2 0 20 0;
#X connect 3 0 21 0;
#X connect 4 0 2 1;
#X connect 5 0 4 0;
#X connect 6 0 23 0;
#X connect 8 0 106 0;
#X connect 10 0 11 0;
#X connect 11 0 12 0;
#X connect 12 0 14 0;
#X connect 13 0 18 1;
#X connect 13 0 19 1;
#X connect 14 0 13 0;
#X connect 16 0 17 0;
#X connect 17 0 10 0;
#X connect 18 0 0 0;
#X connect 19 0 0 1;
#X connect 22 0 3 1;
#X connect 22 0 4 1;
#X connect 23 0 22 0;
#X connect 25 0 2 0;
#X connect 25 0 3 0;
#X connect 27 0 24 0;
#X connect 28 0 31 0;
#X connect 28 0 56 0;
#X connect 29 0 28 0;
#X connect 30 0 27 1;
#X connect 31 0 30 0;
#X connect 32 0 29 1;
#X connect 32 0 75 0;
#X connect 33 0 154 0;
#X connect 34 0 37 0;
#X connect 35 0 34 0;
#X connect 36 0 35 0;
#X connect 37 0 42 0;
#X connect 39 0 40 0;
#X connect 40 0 41 0;
#X connect 41 0 6 0;
#X connect 42 0 87 0;
#X connect 43 0 5 0;
#X connect 44 0 45 0;
#X connect 45 0 1 0;
#X connect 46 0 47 0;
#X connect 46 0 170 0;
#X connect 47 0 33 0;
#X connect 48 0 104 0;
#X connect 49 0 51 0;
#X connect 50 0 54 0;
#X connect 55 0 52 0;
#X connect 57 0 64 0;
#X connect 58 0 60 0;
#X connect 59 0 65 0;
#X connect 60 0 62 0;
#X connect 61 0 62 1;
#X connect 62 0 59 0;
#X connect 63 0 58 0;
#X connect 64 0 63 0;
#X connect 65 0 91 0;
#X connect 66 0 67 1;
#X connect 67 0 61 0;
#X connect 68 0 69 0;
#X connect 69 0 67 0;
#X connect 70 0 65 1;
#X connect 71 0 72 0;
#X connect 72 0 73 0;
#X connect 73 0 162 0;
#X connect 76 0 79 0;
#X connect 77 0 78 0;
#X connect 78 0 171 0;
#X connect 79 0 88 0;
#X connect 80 0 82 0;
#X connect 81 0 83 0;
#X connect 82 0 85 0;
#X connect 82 0 165 0;
#X connect 83 0 84 0;
#X connect 83 0 166 0;
#X connect 84 0 85 0;
#X connect 84 1 85 1;
#X connect 85 0 86 0;
#X connect 85 0 111 0;
#X connect 86 0 34 1;
#X connect 87 0 89 0;
#X connect 88 0 172 0;
#X connect 88 1 172 1;
#X connect 89 0 32 0;
#X connect 90 0 53 0;
#X connect 91 0 90 0;
#X connect 92 0 105 1;
#X connect 92 0 104 1;
#X connect 93 0 105 0;
#X connect 94 0 116 0;
#X connect 97 0 100 0;
#X connect 98 0 99 0;
#X connect 99 0 102 0;
#X connect 100 0 98 0;
#X connect 101 0 27 0;
#X connect 102 0 103 0;
#X connect 103 0 92 0;
#X connect 104 0 95 0;
#X connect 105 0 96 0;
#X connect 107 0 7 0;
#X connect 108 0 36 0;
#X connect 109 0 29 0;
#X connect 110 0 68 0;
#X connect 111 0 134 0;
#X connect 112 0 131 0;
#X connect 113 0 18 0;
#X connect 114 0 19 0;
#X connect 116 0 117 0;
#X connect 117 0 115 0;
#X connect 118 0 144 0;
#X connect 119 0 116 1;
#X connect 121 0 118 0;
#X connect 122 0 123 0;
#X connect 123 0 132 0;
#X connect 124 0 127 0;
#X connect 125 0 127 0;
#X connect 126 0 128 0;
#X connect 127 0 117 1;
#X connect 127 0 137 0;
#X connect 127 1 126 0;
#X connect 128 0 127 0;
#X connect 129 0 128 0;
#X connect 130 0 122 0;
#X connect 131 0 120 0;
#X connect 132 0 135 0;
#X connect 133 0 124 0;
#X connect 134 0 145 0;
#X connect 135 0 133 0;
#X connect 136 0 137 1;
#X connect 137 0 143 0;
#X connect 138 0 140 0;
#X connect 139 0 136 1;
#X connect 140 0 139 0;
#X connect 141 0 138 0;
#X connect 142 0 136 0;
#X connect 144 0 119 0;
#X connect 145 0 112 0;
#X connect 146 0 147 0;
#X connect 147 0 167 0;
#X connect 148 0 150 0;
#X connect 149 0 159 0;
#X connect 150 0 152 0;
#X connect 151 0 158 0;
#X connect 152 0 153 0;
#X connect 153 0 38 0;
#X connect 154 0 157 0;
#X connect 155 0 154 1;
#X connect 155 0 162 1;
#X connect 156 0 155 0;
#X connect 157 0 152 0;
#X connect 157 1 152 1;
#X connect 158 0 150 0;
#X connect 158 0 154 0;
#X connect 158 0 159 0;
#X connect 158 0 162 0;
#X connect 158 1 150 1;
#X connect 158 1 156 0;
#X connect 158 1 159 1;
#X connect 159 0 160 0;
#X connect 160 0 161 0;
#X connect 161 0 74 0;
#X connect 162 0 163 0;
#X connect 163 0 160 0;
#X connect 163 1 160 1;
#X connect 167 0 148 0;
#X connect 167 1 149 0;
#X connect 167 2 168 0;
#X connect 169 0 8 0;
#X connect 170 0 151 0;
#X connect 171 0 172 0;
#X connect 172 0 66 0;
