#N canvas 34 34 1920 1022 12;
#X obj 81 656 dac~;
#X floatatom 441 67 5 0 0 0 - - - 0;
#X obj 18 902 *~;
#X obj 75 902 *~;
#X obj 37 868 -~;
#X msg 37 839 1;
#X obj 95 770 hsl 162 19 0 1 0 0 empty empty empty -2 -10 0 12 #faff00 #000000 #000000 0 1;
#X msg 16 92 \; pd dsp \$1;
#X obj 16 20 tgl 30 0 empty empty empty 17 7 0 10 #9c9c9c #000000 #000000 0 1;
#X text 56 25 <-Click to start/stop DSP;
#X obj 66 259 vsl 15 128 0 100 0 0 empty empty empty 0 -9 0 10 #fcc4c4 #000000 #000000 0 1;
#X obj 66 404 / 100;
#X floatatom 66 433 5 0 0 0 - - - 0;
#X obj 66 485 line~;
#X obj 66 460 pack 0 50;
#X text 96 256 volume;
#X obj 66 199 loadbang;
#X msg 66 228 30;
#X obj 48 580 *~;
#X obj 104 581 *~;
#X obj 19 955 s~ left;
#X obj 104 957 s~ right;
#X obj 92 850 line~;
#X obj 92 800 pack 0 50;
#X obj 627 601 s~ sound;
#X obj 17 772 r~ sound;
#X text 274 771 <-pan;
#X obj 632 334 tgl 19 0 empty empty empty 0 -10 0 12 #fcfcfc #000000 #000000 0 1;
#X obj 581 566 *~;
#X obj 632 415 tgl 19 0 empty empty empty 0 -10 0 12 #fcfcfc #000000 #000000 0 1;
#X obj 632 380 metro 500;
#X obj 632 479 line~;
#X obj 632 454 pack 0 10;
#X floatatom 706 344 5 0 0 0 - - - 0;
#X obj 1393 129 hsl 162 19 -1 1 0 0 empty empty empty -2 -10 0 12 #00ff04 #000000 #000000 0 1;
#X obj 706 180 /;
#X msg 706 95 1;
#X obj 706 63 metro 50;
#X obj 706 34 tgl 19 0 empty empty empty 0 -10 0 12 #fcfcfc #000000 #000000 0 1;
#X obj 706 217 abs;
#X obj 1390 167 s balance;
#X obj 92 690 r balance;
#X obj 92 714 / 2;
#X obj 92 743 + 0.5;
#X obj 706 248 log;
#X obj 28 800 loadbang;
#X obj 632 297 loadbang;
#X obj 621 16 loadbang;
#X obj 441 7 loadbang;
#X msg 441 36 440;
#X obj 1390 54 loadbang;
#X msg 1390 83 0.1;
#X obj 549 843 r~ left_del;
#X obj 966 380 r~ left;
#X obj 1169 380 r~ right;
#X obj 966 431 delwrite~ delayleft 1000;
#X obj 1202 903 s~ right_del;
#X obj 996 916 s~ left_del;
#X obj 1169 432 delwrite~ delayright 1000;
#X obj 1201 844 delread~ delayright 0;
#X obj 717 434 s clock;
#X obj 1010 507 r clock;
#X floatatom 1009 609 5 0 0 0 - - - 0;
#X floatatom 996 735 5 0 0 0 - - - 0;
#X obj 1009 641 bng 19 250 50 0 empty empty empty 0 -10 0 12 #fcfcfc #000000 #000000;
#X floatatom 1239 637 5 0 0 0 - - - 0;
#X obj 1047 683 int;
#X obj 1009 579 abs;
#X obj 1009 546 - 1;
#X obj 995 770 pipe 5;
#X floatatom 1476 623 5 0 0 0 - - - 0;
#X obj 1239 488 tgl 19 0 empty empty empty 0 -10 0 12 #fcfcfc #000000 #000000 0 1;
#X obj 1154 470 loadbang;
#X obj 1239 597 int;
#X obj 1239 521 metro 500;
#X obj 1239 559 bng 19 250 50 0 empty empty empty 0 -10 0 12 #fcfcfc #000000 #000000;
#X floatatom 1064 733 5 0 0 0 - - - 0;
#X obj 1590 53 loadbang;
#X msg 1590 82 0.1;
#X obj 1590 115 vsl 19 162 1 -1 0 0 empty empty empty 0 -9 0 12 #00faff #000000 #000000 0 1;
#X obj 1590 296 s fr_balance;
#X obj 810 380 s click;
#X obj 1559 450 r click;
#X obj 1475 418 r fr_balance;
#X obj 1475 452 / 2;
#X obj 1475 481 + 0.5;
#X obj 1558 481 / 2;
#X obj 802 14 r balance;
#X obj 879 14 r fr_balance;
#X obj 802 43 abs;
#X obj 879 38 abs;
#X obj 845 73 t b f;
#X obj 832 142 expr $f1 + $f2;
#X obj 773 161 / 2;
#X obj 706 283 * 30;
#X obj 1539 526 t b f;
#X obj 1476 573 expr $f1 * $f2;
#X obj 706 311 + 100;
#X obj 995 848 delread~ delayleft 0;
#X floatatom 995 809 5 0 0 0 - - - 0;
#X floatatom 638 843 5 0 0 0 - - - 0;
#X obj 683 842 r~ right_del;
#X obj 15 520 r~ left_del_pass;
#X obj 550 958 s~ left_del_pass;
#X obj 142 521 r~ right_del_pass;
#X obj 683 957 s~ right_del_pass;
#X obj 751 584 r fr_balance;
#X obj 751 664 / 2;
#X obj 751 693 + 0.5;
#X obj 751 631 * -1;
#X msg 319 581 \; waveform sinsum 2051 1 0 0.5 0;
#X obj 441 114 phasor~ 440;
#X obj 751 722 * 1000;
#X obj 750 759 + 450;
#X obj 550 910 bp~ 450 1;
#X obj 684 909 bp~ 450 1;
#X connect 1 0 111 0;
#X connect 2 0 20 0;
#X connect 3 0 21 0;
#X connect 4 0 2 1;
#X connect 5 0 4 0;
#X connect 6 0 23 0;
#X connect 8 0 7 0;
#X connect 10 0 11 0;
#X connect 11 0 12 0;
#X connect 12 0 14 0;
#X connect 13 0 18 1;
#X connect 13 0 19 1;
#X connect 14 0 13 0;
#X connect 16 0 17 0;
#X connect 17 0 10 0;
#X connect 18 0 0 0;
#X connect 19 0 0 1;
#X connect 22 0 3 1;
#X connect 22 0 4 1;
#X connect 23 0 22 0;
#X connect 25 0 2 0;
#X connect 25 0 3 0;
#X connect 27 0 30 0;
#X connect 28 0 24 0;
#X connect 29 0 32 0;
#X connect 29 0 60 0;
#X connect 30 0 29 0;
#X connect 31 0 28 1;
#X connect 32 0 31 0;
#X connect 33 0 30 1;
#X connect 33 0 81 0;
#X connect 34 0 40 0;
#X connect 35 0 39 0;
#X connect 36 0 35 0;
#X connect 37 0 36 0;
#X connect 38 0 37 0;
#X connect 39 0 44 0;
#X connect 41 0 42 0;
#X connect 42 0 43 0;
#X connect 43 0 6 0;
#X connect 44 0 94 0;
#X connect 45 0 5 0;
#X connect 46 0 27 0;
#X connect 47 0 38 0;
#X connect 48 0 49 0;
#X connect 49 0 1 0;
#X connect 50 0 51 0;
#X connect 51 0 34 0;
#X connect 52 0 114 0;
#X connect 53 0 55 0;
#X connect 54 0 58 0;
#X connect 59 0 56 0;
#X connect 61 0 68 0;
#X connect 62 0 64 0;
#X connect 63 0 69 0;
#X connect 64 0 66 0;
#X connect 65 0 66 1;
#X connect 66 0 63 0;
#X connect 67 0 62 0;
#X connect 68 0 67 0;
#X connect 69 0 99 0;
#X connect 70 0 73 1;
#X connect 71 0 74 0;
#X connect 72 0 71 0;
#X connect 73 0 65 0;
#X connect 74 0 75 0;
#X connect 75 0 73 0;
#X connect 76 0 69 1;
#X connect 77 0 78 0;
#X connect 78 0 79 0;
#X connect 79 0 80 0;
#X connect 82 0 86 0;
#X connect 83 0 84 0;
#X connect 84 0 85 0;
#X connect 85 0 96 0;
#X connect 86 0 95 0;
#X connect 87 0 89 0;
#X connect 88 0 90 0;
#X connect 89 0 92 0;
#X connect 90 0 91 0;
#X connect 91 0 92 0;
#X connect 91 1 92 1;
#X connect 92 0 93 0;
#X connect 93 0 35 1;
#X connect 94 0 97 0;
#X connect 95 0 96 0;
#X connect 95 1 96 1;
#X connect 96 0 70 0;
#X connect 97 0 33 0;
#X connect 98 0 57 0;
#X connect 99 0 98 0;
#X connect 100 0 115 1;
#X connect 100 0 114 1;
#X connect 101 0 115 0;
#X connect 102 0 18 0;
#X connect 104 0 19 0;
#X connect 106 0 109 0;
#X connect 107 0 108 0;
#X connect 108 0 112 0;
#X connect 109 0 107 0;
#X connect 111 0 28 0;
#X connect 112 0 113 0;
#X connect 113 0 100 0;
#X connect 114 0 103 0;
#X connect 115 0 105 0;
